<svg xmlns="http://www.w3.org/2000/svg" xmlns:svg="http://www.w3.org/2000/svg" id="svg2" width="24" height="24" version="1.1" viewBox="0 0 24 24"><metadata id="metadata15"/><title id="title4">capture-nozzle</title><desc id="desc6">Created with Sketch.</desc><g style="clip-rule:evenodd;fill-rule:evenodd;stroke-linejoin:round;stroke-miterlimit:1.41420996" id="g3381" transform="translate(3.006647,-1.0000004)"><path id="path4138" d="m 9.4663333,22 1.3573987,-3.864024 0,-1.23916 -1.0392763,0 0,-2.851774 2.1797043,0 0,-2.947666 3.035841,0 0,-2.3092024 -3.029833,0 0,-2.3246159 -0.881335,0 L 10.985666,2.675463 10.402691,2.0549441 7.4929785,2 6.8407852,2.6941858 l 0.030861,3.7711003 -0.8593039,0 0,2.2853226 -3.0123423,0 0,2.3300443 3.0506295,0 0,2.964349 2.0769209,0 0,2.876206 -1.0392763,0 0,1.213839 1.4101322,3.864913" style="fill:#005bd9;fill-opacity:1;fill-rule:evenodd;stroke:none;stroke-width:.1;stroke-linecap:round;stroke-linejoin:miter;stroke-miterlimit:4;stroke-dasharray:none;stroke-opacity:1"/><g style="clip-rule:evenodd;fill-rule:evenodd;stroke:#bd0404;stroke-width:2.33333325;stroke-linejoin:round;stroke-miterlimit:4;stroke-dasharray:none;stroke-opacity:1" id="g4149" transform="matrix(0.85714286,0,0,0.85714286,-1.2923613,5.178573)"><path style="opacity:1;fill:none;fill-rule:evenodd;stroke:#bd0404;stroke-width:2.33333325;stroke-linecap:butt;stroke-linejoin:miter;stroke-miterlimit:4;stroke-dasharray:none;stroke-opacity:1" id="path4145" d="m 3.8333333,11.458332 5.8333329,0"/><path id="path4144" d="m 14.333333,11.458332 5.833333,0" style="opacity:1;fill:none;fill-rule:evenodd;stroke:#bd0404;stroke-width:2.33333325;stroke-linecap:butt;stroke-linejoin:miter;stroke-miterlimit:4;stroke-dasharray:none;stroke-opacity:1"/></g></g></svg>